<?xml version="1.0" encoding="utf-8"?>
<!-- Generator: Adobe Illustrator 24.1.0, SVG Export Plug-In . SVG Version: 6.00 Build 0)  -->
<svg version="1.1" id="Calque_1" xmlns="http://www.w3.org/2000/svg" xmlns:xlink="http://www.w3.org/1999/xlink" x="0px" y="0px"
	 viewBox="0 0 1416.29 234.12" style="enable-background:new 0 0 1416.29 234.12;" xml:space="preserve">
<style type="text/css">
	.st0{fill:#FFFFFF;}
</style>
<g>
	<g>
		<g>
			<path class="st0" d="M231.05,220.8c-0.19-4.05-0.42-8.94-0.37-13.17h-0.14c-1.02,3.82-2.33,8.05-3.72,12.01l-4.56,13.59h-4.42
				l-4.19-13.41c-1.21-4-2.33-8.29-3.17-12.2h-0.09c-0.14,4.1-0.33,9.08-0.56,13.36l-0.7,12.62h-5.35l2.09-31.38h7.54l4.1,12.62
				c1.12,3.68,2.09,7.4,2.89,10.89h0.14c0.84-3.4,1.91-7.26,3.12-10.94l4.33-12.57h7.45l1.82,31.38h-5.59L231.05,220.8z"/>
			<path class="st0" d="M281.6,224.71l-2.7,8.89h-5.91l10.06-31.38h7.31l10.2,31.38h-6.15l-2.84-8.89H281.6z M290.58,220.38
				l-2.47-7.73c-0.61-1.91-1.12-4.05-1.58-5.87h-0.09c-0.47,1.82-0.93,4-1.49,5.87l-2.42,7.73H290.58z"/>
			<path class="st0" d="M342.48,195.01l4.8,5.54h-4.28l-2.61-3.03h-0.09l-2.61,3.03h-4.24l4.7-5.54H342.48z M343.23,202.23v31.38
				h-5.73v-31.38H343.23z"/>
			<path class="st0" d="M388.38,207.02h-8.94v-4.8h23.7v4.8h-9.03v26.58h-5.73V207.02z"/>
			<path class="st0" d="M439.35,202.64c2.14-0.37,5.35-0.65,8.66-0.65c4.52,0,7.59,0.74,9.68,2.51c1.72,1.44,2.7,3.63,2.7,6.29
				c0,4.05-2.75,6.8-5.68,7.87v0.14c2.23,0.84,3.58,3.03,4.38,6.05c0.98,3.91,1.82,7.54,2.47,8.75h-5.91
				c-0.47-0.93-1.21-3.49-2.1-7.4c-0.88-4.1-2.37-5.4-5.63-5.49h-2.89v12.9h-5.68V202.64z M445.02,216.52h3.4
				c3.86,0,6.29-2.05,6.29-5.17c0-3.45-2.42-5.03-6.15-5.03c-1.82,0-2.98,0.14-3.54,0.28V216.52z"/>
			<path class="st0" d="M515.96,219.68h-11.82v9.22h13.22v4.7h-18.95v-31.38h18.25v4.7h-12.52v8.1h11.82V219.68z"/>
			<path class="st0" d="M629.91,232.67c-1.35,0.7-4.33,1.4-8.1,1.4c-9.96,0-16.02-6.24-16.02-15.78c0-10.33,7.17-16.57,16.76-16.57
				c3.77,0,6.47,0.79,7.64,1.4l-1.26,4.56c-1.49-0.65-3.54-1.21-6.15-1.21c-6.38,0-10.99,4-10.99,11.55
				c0,6.89,4.05,11.31,10.94,11.31c2.33,0,4.75-0.47,6.24-1.16L629.91,232.67z"/>
			<path class="st0" d="M673.06,202.23v12.57h13.27v-12.57h5.73v31.38h-5.73v-13.83h-13.27v13.83h-5.73v-31.38H673.06z"/>
			<path class="st0" d="M759.03,217.59c0,10.52-6.38,16.53-15.04,16.53c-8.84,0-14.43-6.75-14.43-15.97
				c0-9.64,6.05-16.43,14.9-16.43C753.63,201.71,759.03,208.65,759.03,217.59z M735.62,218.05c0,6.38,3.21,11.45,8.71,11.45
				c5.54,0,8.66-5.12,8.66-11.69c0-5.91-2.93-11.5-8.66-11.5C738.64,206.32,735.62,211.58,735.62,218.05z"/>
			<path class="st0" d="M818.99,232.67c-1.35,0.7-4.33,1.4-8.1,1.4c-9.96,0-16.01-6.24-16.01-15.78c0-10.33,7.17-16.57,16.76-16.57
				c3.77,0,6.47,0.79,7.63,1.4l-1.26,4.56c-1.49-0.65-3.54-1.21-6.15-1.21c-6.38,0-10.99,4-10.99,11.55
				c0,6.89,4.05,11.31,10.94,11.31c2.33,0,4.75-0.47,6.24-1.16L818.99,232.67z"/>
			<path class="st0" d="M883.04,217.59c0,10.52-6.38,16.53-15.04,16.53c-8.84,0-14.43-6.75-14.43-15.97
				c0-9.64,6.05-16.43,14.9-16.43C877.64,201.71,883.04,208.65,883.04,217.59z M859.62,218.05c0,6.38,3.21,11.45,8.71,11.45
				c5.54,0,8.66-5.12,8.66-11.69c0-5.91-2.93-11.5-8.66-11.5C862.64,206.32,859.62,211.58,859.62,218.05z"/>
			<path class="st0" d="M920.5,202.23h5.73v26.58h12.9v4.79H920.5V202.23z"/>
			<path class="st0" d="M982.5,224.71l-2.7,8.89h-5.91l10.06-31.38h7.31l10.2,31.38h-6.15l-2.84-8.89H982.5z M991.49,220.38
				l-2.47-7.73c-0.6-1.91-1.12-4.05-1.58-5.87h-0.09c-0.46,1.82-0.93,4-1.49,5.87l-2.42,7.73H991.49z"/>
			<path class="st0" d="M1040.64,207.02h-8.94v-4.8h23.7v4.8h-9.03v26.58h-5.73V207.02z"/>
			<path class="st0" d="M1097.33,202.23v31.38h-5.73v-31.38H1097.33z"/>
			<path class="st0" d="M1154.03,219.68h-11.83v9.22h13.22v4.7h-18.95v-31.38h18.25v4.7h-12.52v8.1h11.83V219.68z"/>
			<path class="st0" d="M1193.03,202.64c2.14-0.37,5.35-0.65,8.66-0.65c4.52,0,7.59,0.74,9.68,2.51c1.72,1.44,2.7,3.63,2.7,6.29
				c0,4.05-2.75,6.8-5.68,7.87v0.14c2.24,0.84,3.59,3.03,4.38,6.05c0.98,3.91,1.82,7.54,2.47,8.75h-5.91
				c-0.47-0.93-1.21-3.49-2.09-7.4c-0.88-4.1-2.38-5.4-5.63-5.49h-2.89v12.9h-5.68V202.64z M1198.71,216.52h3.4
				c3.86,0,6.28-2.05,6.28-5.17c0-3.45-2.42-5.03-6.14-5.03c-1.82,0-2.98,0.14-3.54,0.28V216.52z"/>
		</g>
	</g>
	<g>
		<rect x="1259.76" y="215.45" class="st0" width="143.34" height="4.23"/>
	</g>
	<g>
		<rect x="13.19" y="215.45" class="st0" width="143.34" height="4.23"/>
	</g>
	<g>
		<path class="st0" d="M830.17,2.99c36.96-5.54,119.88-7.62,132.26,48.47c3.49,15.82-10.98,29.51-24.02,38.2
			c-24.65,16.43-49.81,22.7-75.53,30.48c-6.17,1.87-7.37,2.45-12.28,0c-3.5-5.26,1.75-10.52,7.01-12.27
			c10.52-1.75,19.29-5.27,28.05-7.01c25.22-6.88,38.45-13.71,50.68-21.05c10.52-7.01,19.51-20.33,17.7-28.05
			c-7.77-33.15-46.33-33.65-74.39-38.91c-17.52-1.75-36.59-1.36-52.37,3.9c-22.4,8.96-47.85,29.58-48.58,19.22
			C778.21,29.89,810.79,5.9,830.17,2.99"/>
		<path class="st0" d="M804.33,125.24c0,14.02,2.98,34.43,0.09,36.5c-2.9,2.07-11.59,0.4-10.18-7.23
			c3.54-19.08-5.13-49.39,4.73-52.3C805.87,100.18,804.33,112.87,804.33,125.24"/>
		<path class="st0" d="M1070.67,142.64c-3.51,1.76-11.49,1.86-15-1.64c-4.47-4.47,4-8.72,5.76-10.48c7.01-3.5,20.43-2.38,22.18,2.88
			C1087.11,138.66,1075.93,139.14,1070.67,142.64 M1352.08,142.93c-15.77,2.34-31.59,7.01-49.13,5.26
			c-12.62-2.52-15.41-6.33-13.56-17.46c0-1.75-7.04-5.06-7.81-3.49c-6.37,13.14-11.04,17.87-21.56,17.87
			c-12.28,0-1.64-16.64-5.13-20.75c-1.03-2.67-4.94-3.08-6.78-2.26c-7.8,1.44-3.59,22.19-8.62,22.19c-2.5,0.41-58.94,2.97-61,2.46
			c-4.11-1.02-8.11-3.06-9.86-6.57c-1.75-19.29,3.95-37.6,3.49-56.89c-0.2-8.63-9.04-23.41-12.92-19.26
			c5.33,20.08,6.08,52.65-2.68,73.68c-3.5,8.73-47.55,8.72-48.17,8.72c-3.51,0-8-1.41-9.75-6.67c-2.01-20.02-18.75-19.81-34.3-17.87
			c-14.03,1.75-19.59,13.71-24.85,24.23c-28.14-0.82-52.44,1.85-80.72,1.85c-1.75,0-5.43-3.39-7.18-5.13
			c-1.76-8.77,8.34-15.68,3.08-24.44c-5.26-8.77-19.32-9.46-25.68-1.85c-1.02,1.23-1.59,6.17,0.62,6.17
			c5.27,1.75,15.61-5.58,15.61,1.43c0,4.45-16.05,26.79,8.42,33.07c32.89,8.42,69.8-9.63,98.64-2.02c10,2.64,26.23,0.79,36.09-3.93
			c0.19-0.09,19,8.19,31.63,6.37c19.92-2.88,23.15-9.96,37.18-11.71c3.51-1.76,10.05,7.28,13.55,9.04
			c17.97,6.41,40.87-1.44,72.09-3.9c3.49-0.27,4.52,4.33,12.53,5.13c16.43,1.65,19.18-6.89,24.44-5.13
			c16.41,4.69,18.3,10,46.62,5.13C1347.67,152.54,1362.65,141.37,1352.08,142.93"/>
		<path class="st0" d="M1369.28,122.73c2.35,0.78,7.02,4.1,10.89,5.95c14.58,6.99,24.39,12.89,34.91,23.41
			c1.44,1.44,1.85,4.73-0.2,6.37c-14.49,11.59-17.68,13.21-34.75,10.77c-1.75,0-1.75-1.76-1.75-3.51
			c5.26-7.01,21.48-8.48,18.02-12.81c-4.11-5.14-16.9-8.26-24.03-11.71c-8.03-3.88-11.3-8.83-15.03-14.06c-1.82-2.54,0-5.26,0-5.26
			C1358.81,116.15,1364.02,120.97,1369.28,122.73"/>
		<path class="st0" d="M67.8,51.73c1.72-9.91-6.44-8.97-8.16,0.96c-2.92,16.8-5.24,28.19-3.86,45.27
			c1.16,14.34,4.25,38.17,0.98,52.38c-2.24,9.74,8.12,14.02,10.34,4.35c2.87-12.44,1.59-33.07,0.47-45.73
			C65.85,89.64,64.46,70.97,67.8,51.73"/>
		<path class="st0" d="M148.12,78.51c7.19,0.06,5.61-13.26-1.31-11.64c-24.61,5.81-85.37,14.55-107.97,17.17
			c-7.12,0.82-5.83,12.46,1.31,11.63C62.75,93.06,125.09,78.3,148.12,78.51"/>
		<path class="st0" d="M48.16,42.18c12.44-1.31,21.97-2.43,36.07-3.96c29.93-3.25,57.83-9.93,86.29-14.51
			c18.17-2.93,31.77-3.47,47.04-10.21c13.19-5.83,11.75-18.16-0.91-11.67c-4.07,2.08-48.2,11.11-48.57,11.15
			C125.62,17.3,79.9,27.35,40.56,30.54C26,31.71,19.92,34.69,10.78,36.81c-16.13,3.74-12.76,15.07,0.92,11.67
			C22.04,45.9,30.74,44.01,48.16,42.18"/>
		<path class="st0" d="M525.69,149.13c-4.84,0.43-15.71-5.43-16.86-9.14c-1.67-5.35,19.92-6.86,19.92-6.86s5.5,0.86,7.48,0.84
			c0.63,0,1.56,4.55,2.09,4.58c-0.09,0.84,0.51,3.13-0.06,4.17C536.56,145.81,529.99,148.75,525.69,149.13 M306.3,152.52
			c7.73,0.66,18.71-3.13,26.47-2.76c5.23,0.25,6.77-0.22,11.4-2.93c1.55-0.91,3.61-5.62,4.6-7c1.55,3.96,3.07,10.94,5.76,14.32
			c3.21,4.04,6.41,1.46,8.46-3.11c1.62-3.6,6.4-5.04,8.82-8.28c1.7-2.26,1.15-1.99,2.54-0.83c2.87,2.38,4.5,5.77,6.94,8.46
			c4.03,4.46,11.36,1.76,17.21,2.72c10.39,1.7,20.61,0.42,30.86-1.82c0.93-0.2,2.37,3.3,3,2.89c3.41,3.65,9.05,3.35,12.95,3.03
			c3.04-0.33,4.87,0.21,5.8,0.7c0.67,0.35,2.41,0.18,2.82,2.46c0.4,2.28-2.33,3.16-2.21,3c0.03-0.11-1.75,1.11-4.38,2.97
			c-5.79,4.09,0.27,6.59,6.31,2.61c0.99-0.66,10.7-5.45,7.27-11.79c12.07-0.27,35-2.81,46.76-4.73c3.97,2.75,13.07,7.75,17.86,7.66
			c10.62-0.21,18.8-8.48,22.28-16.54c3.66-8.49-2.09-17.16-12.97-16.45c-0.42,0.02-0.8,0.1-1.17,0.18c-0.68-2.77-3.5-5.36-7.61-4.83
			c-11.03,1.42-25.46,6.76-23.98,18.64c0.2,1.63,2.44,5.6,3.17,7.18c-15.62,2.32-25.1,3.15-42.06,1.64
			c-0.42-0.1-6.53,0.39-6.94,0.27c-1.07-0.28-7.34-1.42-8.22-1.25c-3.51-0.44-5.61-1.22-7.25-2.93c-0.73-2.16-1.06-4.37-0.26-6.59
			c2.67-7.42,17.88-8.34,23.38-7.66c7.99,1,14.17-5.42,6.27-6.4c-11.99-1.49-29.94-3.3-38.62,6.21c-3.43,3.76-4.4,8.31-3.84,12.86
			c-0.28,0.03-0.55,0.05-0.84,0.11c-6.47,1.42-12.48,1.74-19.1,1.28c-3.87-0.27-7.73-1.06-11.54-1.74
			c-1.12-0.21-2.24-0.41-3.36-0.61c-1.12-0.27-1.93-0.45-2.51-0.56c-2.88-2.89-4.59-6.59-7.87-9.29
			c-8.79-7.27-16.28-2.37-21.62,4.52c-2.24-5.85-5.28-11.19-12.54-9.56c-2.81,0.63-5.03,2.41-6.9,4.24
			c-1.27,1.25-2.3,2.68-3.34,4.07c-1.32,1.77-2.2,2.03-1.45,2.11c-9.33-0.35-18.67,4.17-27.96,3.34"/>
		<path class="st0" d="M612.74,146.1c-12.2,3.32-30,5.31-43.06,2.57c-8.22-1.72-10.44-12.56-10.02-17.76
			c0.54-6.6-6.83-7.78-7.36-1.21c-0.8,9.73-1.08,22.38,10.44,27.56c14.86,6.67,37.21-1.31,51.48-5.18
			C621.4,150.13,619.98,144.14,612.74,146.1"/>
		<path class="st0" d="M557.35,115.42c3.33-0.68,7.81-2.8,6.97-5.65c-0.54-1.83-4.57-4.19-6.46-4.78c-1.19-1.17-2.92-1.94-4.68-1.97
			c-3.59-0.06-6.08,2.41-6.35,5.38c-0.23,2.55,1.14,4.81,3.49,6.26C552.34,115.92,555.05,115.89,557.35,115.42"/>
		<path class="st0" d="M257.87,140.26c-3.3,1.65-10.8,1.75-14.1-1.55c-4.21-4.21,3.76-8.2,5.41-9.85c6.6-3.3,19.22-2.24,20.87,2.71
			C273.34,136.51,262.82,136.95,257.87,140.26 M338.63,135.61c-3.29,8.21-44.73,8.21-45.31,8.21c-3.3,0-7.53-1.32-9.18-6.28
			c-1.88-18.84-17.64-18.64-32.27-16.81c-13.19,1.65-18.43,12.9-23.38,22.8c-26.47-0.77-49.33,1.74-75.93,1.74
			c-1.65,0-5.11-3.18-6.76-4.83c-1.65-8.25,7.84-14.74,2.9-22.99c-4.95-8.25-18.18-8.91-24.15-1.74c-0.97,1.16-1.5,5.79,0.58,5.79
			c4.95,1.65,14.69-5.24,14.69,1.35c0,4.18-15.1,25.21,7.92,31.11c30.94,7.93,65.67-9.06,92.8-1.9c9.41,2.48,24.67,0.74,33.95-3.7
			c0.17-0.08,17.87,7.71,29.76,6c18.74-2.71,21.78-9.37,34.97-11.02"/>
		<path class="st0" d="M624.91,124.01c2.05,0.69,6.12,3.62,9.49,5.27c12.72,6.17,21.28,11.39,30.46,20.69
			c1.25,1.27,1.61,4.17-0.18,5.63c-12.64,10.24-15.41,11.67-30.31,9.52c-1.53,0-1.53-1.55-1.53-3.1c4.59-6.2,18.74-7.49,15.71-11.32
			c-3.58-4.54-14.74-7.3-20.96-10.35c-7.01-3.43-9.85-7.8-13.11-12.42c-1.58-2.24,0-4.65,0-4.65
			C615.78,118.2,620.32,122.46,624.91,124.01"/>
	</g>
</g>
</svg>
